<?xml version="1.0" encoding="UTF-8" standalone="no"?>
<!-- Created with Inkscape (http://www.inkscape.org/) -->

<svg
   width="102.50054mm"
   height="126.88073mm"
   viewBox="0 0 102.50054 126.88073"
   version="1.1"
   id="svg1"
   inkscape:version="1.4.3 (0d15f75, 2025-12-25)"
   sodipodi:docname="chicken.svg"
   xmlns:inkscape="http://www.inkscape.org/namespaces/inkscape"
   xmlns:sodipodi="http://sodipodi.sourceforge.net/DTD/sodipodi-0.dtd"
   xmlns="http://www.w3.org/2000/svg"
   xmlns:svg="http://www.w3.org/2000/svg">
  <sodipodi:namedview
     id="namedview1"
     pagecolor="#000000"
     bordercolor="#111111"
     borderopacity="1"
     inkscape:showpageshadow="0"
     inkscape:pageopacity="0"
     inkscape:pagecheckerboard="1"
     inkscape:deskcolor="#d1d1d1"
     inkscape:document-units="mm"
     inkscape:zoom="0.5488903"
     inkscape:cx="228.64314"
     inkscape:cy="225.91035"
     inkscape:window-width="1146"
     inkscape:window-height="689"
     inkscape:window-x="0"
     inkscape:window-y="33"
     inkscape:window-maximized="0"
     inkscape:current-layer="layer1" />
  <defs
     id="defs1" />
  <g
     inkscape:label="Layer 1"
     inkscape:groupmode="layer"
     id="layer1"
     transform="translate(-44.353961,-88.661368)">
    <path
       style="fill:none;stroke:#ffff00;stroke-width:0.264583"
       d="m 125.77663,90.652767 c -2.45699,-1.59841 -4.46966,-1.00588 -4.49792,2.11666 -5.02883,0.51877 -2.33413,6.69013 -0.26458,8.995843 -7.97722,3.32211 -12.25455,10.60469 -14.7248,18.52083 -0.72654,2.32828 -0.18085,5.97332 -1.60077,7.92178 -1.32458,1.81763 -6.197306,0.72851 -8.280676,0.81989 -7.68419,0.33701 -12.86188,2.6476 -20.59442,-1.00037 -1.58639,-0.7484 -0.13049,-7.71558 -0.0194,-9.3288 0.46613,-6.76872 0.9062,-30.623603 -11.40076,-27.942533 -1.94254,0.42318 -2.65476,2.16375 -4.25702,3.02433 -2.06284,1.10796 -4.53201,0.55035 -6.56701,2.14505 -8.58757,6.729473 -9.08052,18.032303 -8.25558,27.535653 0.171,1.9699 -1.23131,3.73139 -0.91236,5.82083 0.68642,4.49668 3.64576,8.50359 5.15141,12.7 5.3489,14.90793 13.61588,28.42556 22.65107,41.80417 2.32762,3.44655 5.74124,5.33882 7.90484,8.99583 1.94746,3.29168 5.8203,10.02192 5.07894,14.01904 -0.4421,2.38359 -6.03194,3.09075 -4.34174,6.34224 1.42729,2.74573 8.36776,-0.27764 9.47661,-2.36961 3.46008,2.01952 11.372426,8.66079 11.377086,1.5875 2.10026,0.16598 8.64809,2.47104 10.23463,1.16225 0.92543,-0.76342 1.59861,-5.53672 2.20078,-6.98309 9.55065,2.84939 10.20635,-3.74903 2.62114,-8.0851 -3.08317,-1.76249 -8.46303,-0.0573 -10.9745,-2.53742 -1.32186,-1.3054 -5.37413,-5.85349 -4.39523,-7.89831 4.46638,-9.32986 20.83597,-6.64363 28.62359,-13.30859 7.95931,-6.81188 12.50682,-23.42044 10.68541,-33.52266 -1.19258,-6.61448 -4.85355,-13.23007 -5.39374,-19.84375 6.41698,-0.56026 9.91752,-3.79665 7.14375,-10.05416 7.29913,-1.7378 3.44325,-2.06734 2.97309,-7.40834 -0.30505,-3.46528 2.80044,-16.282473 -6.67726,-10.583333 -1.65805,-3.72016 -11.312,-6.80842 -12.96458,-2.64583 M 73.124554,106.26318 h 0.26458 l 0.26458,-1.32291 h 0.26459 c 0.15284,7.40516 2.22959,19.931 -3.175,25.4 4.0144,-1.18659 11.2726,-0.004 14.55208,2.64583 -3.35223,2.21818 -6.71529,4.32076 -8.73125,7.9375 4.81808,-4.71863 11.05494,-8.40959 17.72708,-9.66791 2.55959,-0.48272 8.882056,0.88127 10.760946,-0.54611 3.146,-2.38999 2.73921,-9.55381 4.07266,-13.06931 3.97302,-10.47446 18.03899,-21.756603 29.08111,-13.48232 3.04354,2.28064 -2.2703,3.37636 -0.52305,5.28023 v 0.26459 c -2.17537,0.42452 -12.21016,0.31204 -10.25506,-4.44137 0.53181,-1.29299 3.60093,-1.98214 4.69881,-2.96697 -6.34275,1.31265 -7.63008,6.4171 -0.52917,8.46667 l 0.52917,1.05833 c -3.49115,6.63656 4.0815,18.57497 5.9862,26.19375 4.83149,19.32599 -7.33772,42.05443 -29.00495,42.06875 l 0.79375,-1.32292 -14.552076,3.70417 v 0.26458 l 7.937496,-0.26458 c -0.87106,2.05727 -2.62008,3.61473 -4.762496,4.23333 v -0.79375 l -3.43959,1.85209 c 5.948576,-0.83254 6.473826,9.12612 11.641666,10.9112 2.44614,0.84495 8.16305,-0.16001 9.525,2.31796 l -8.20208,-1.32291 c 2.42769,3.26723 8.641,3.43441 12.17083,5.29166 v 0.26459 c -6.51681,0 -10.83108,-2.33472 -16.40417,-5.29167 1.57194,3.54148 7.61953,3.68156 7.67292,8.20208 h -0.26458 c -3.06824,-3.99052 -8.09207,-4.51038 -12.435416,-4.49791 2.113116,-7.40897 -2.82068,-13.35041 -8.46667,-17.19792 v -0.26458 l 5.55625,-5.82084 c -5.75652,2.73717 -8.17496,6.27094 -15.08125,7.14375 0.88837,1.39254 1.776,0.98315 3.175,0.52917 2.29156,5.51143 5.01162,12.73355 10.58334,15.76455 3.20703,1.74462 8.572666,-0.13177 11.112496,2.75628 l -10.583336,-1.5875 c 3.50004,3.99088 10.707676,3.40195 15.081246,6.35 v 0.26459 c -6.71633,-0.28837 -11.278476,-2.75666 -17.197906,-5.02709 1.8573,2.50134 5.53042,3.16091 6.61458,6.35 l -9.70262,-4.09899 -7.23071,3.04066 v -0.26458 c 7.79155,-5.25199 2.72618,-13.42462 -1.24881,-20.37292 -1.9288,-3.37155 -4.97383,-4.9388 -7.2444,-7.9375 -8.59218,-11.3475 -16.64221,-23.93978 -16.64221,-38.36458 -2.2455,2.7842 -0.93343,6.27187 -0.79375,9.525 -3.80977,-1.79167 -4.75213,-8.14971 -4.7625,-11.90625 h 1.85208 c -2.68794,-2.4684 -10.14068,-11.96961 -7.1068,-16.05425 1.93269,-2.60206 5.8369,5.74995 6.31305,7.05842 h 0.26459 c -0.56798,-6.95379 -9.01166,-10.58627 -6.35,-17.72709 2.19622,0.52215 3.60972,2.61094 5.02708,4.23334 -0.21392,-4.11472 -5.06249,-5.32112 -4.90561,-9.78959 0.37898,-10.794803 9.95827,5.09954 10.99103,7.9375 h 0.26458 c -0.5158,-6.31503 -6.61658,-8.89523 -7.8493,-13.80713 -1.10237,-4.392463 4.51281,-3.00122 6.12481,-1.00566 3.75958,4.65414 3.33445,12.45026 7.01616,16.66488 -0.0177,-6.39961 -3.25179,-18.16441 -10.31875,-19.84375 1.15041,-4.785473 4.86825,-2.823883 8.06203,-4.352983 1.53638,-0.73557 1.582,-2.82931 3.57963,-3.22868 6.64153,-1.32779 7.24849,9.663583 8.20209,13.667073 m -10.58334,-8.731253 c 2.5389,9.868053 4.50486,16.753173 4.49792,27.252093 h 0.26458 c 2.74013,-5.68611 1.56943,-24.03671 -4.7625,-27.252093 m 69.056246,6.614593 -0.79375,0.79375 v 0.26458 c 1.42216,1.65078 3.81104,2.32554 3.96875,-0.52917 -1.52919,0.89257 -1.98897,0.73424 -3.175,-0.52916 m -19.31458,26.9875 c -2.08181,1.40303 -3.82737,2.115 -6.35,2.11666 v 0.26459 c 2.03698,0.85954 6.16624,0.53327 6.35,-2.38125 m -46.302076,1.5875 c 4.0454,-0.78946 6.81556,2.41117 9.78958,4.49791 -0.82639,-2.80835 -7.21614,-8.37722 -9.78958,-4.49791 m 48.947906,0.52916 -3.43958,2.38125 v 0.26459 c 1.55343,-0.004 4.18177,-0.47537 3.43958,-2.64584 m 3.175,1.05834 c -0.78106,2.77938 -1.04945,6.5519 1.85209,8.20208 l -1.85209,-8.20208 m 4.49792,3.70416 -2.11667,6.87917 c 2.20196,-0.75073 4.44469,-5.10697 2.11667,-6.87917 m 1.85208,2.91042 0.79375,8.73125 h 0.26459 c 1.48981,-2.65965 0.91318,-6.43941 -1.05834,-8.73125 m -61.647906,11.64166 c 5.58557,-3.19782 9.7705,-5.58836 16.13958,-7.40833 2.10545,-0.60163 6.58654,-0.84723 7.9375,-2.64583 -7.30718,0.5767 -21.03579,2.03256 -24.07708,10.05416 m 50.006246,-8.99583 c -0.191,9.25155 -8.02133,15.22678 -16.933336,15.61042 l 1.32292,-2.11667 c -4.10534,2.8044 -8.23333,4.64649 -13.22917,5.29167 1.82829,2.39084 7.40555,-0.87866 9.525,-1.45786 5.74504,-1.56998 27.164186,-6.0319 19.314586,-17.32756 m 16.93333,2.64584 -0.79375,4.49791 c 1.50783,-1.18421 1.98963,-2.89081 0.79375,-4.49791 m 1.5875,1.58749 2.11667,8.73125 h 0.26458 c 1.24383,-2.94768 0.45578,-7.01261 -2.38125,-8.73125 m -66.410416,5.55625 v 0.52917 c 4.70472,0 19.47809,1.83689 22.48959,-1.5875 -2.38998,0.44371 -4.80298,0.74202 -7.14375,0 v -0.26458 c 1.73054,-0.59022 3.61896,-1.45314 4.7625,-2.91042 l -20.10834,4.23333 m 6.61459,2.11667 v 0.26458 c 4.36314,2.29957 8.97993,6.47293 14.2875,4.23334 v -0.26459 c -3.43376,0 -6.47965,-0.0962 -9.26042,-2.38125 7.41525,-0.15304 15.28708,0.46515 22.225,-2.38125 v -0.26458 c -3.97212,0.31612 -7.65858,2.32097 -11.64167,1.05833 l 4.7625,-3.175 c -2.0294,-0.33801 -5.54653,1.90722 -7.67291,2.41187 -4.30819,1.02248 -8.35699,0.53451 -12.7,0.49855 m 15.08125,33.07292 c 10.35252,-4.18787 14.187436,21.24701 4.84865,10.05416 -1.00623,-1.206 -1.69791,-2.61084 -2.4674,-3.96875 -1.05229,-1.85693 -2.06738,-3.96012 -2.38125,-6.08541 z"
       id="path250003" />
  </g>
</svg>
