<svg xmlns="http://www.w3.org/2000/svg" viewBox="0 0 3010 2975" width="3010" height="2975">
  <g id="layer0" fill="#67412C" fill-rule="evenodd" stroke="none">
    <path d="M 2137.0,55.0 C 1967.5,28.7 1302.0,-5.7 1018.0,101.0 C 734.0,207.7 556.7,486.2 433.0,695.0 C 309.3,903.8 264.7,1168.8 276.0,1354.0 C 287.3,1539.2 545.0,1537.8 501.0,1806.0 C 457.0,2074.2 -250.5,2770.5 12.0,2963.0 C 274.5,3155.5 1581.5,3032.0 2076.0,2961.0 C 2570.5,2890.0 2834.0,2797.5 2979.0,2537.0 C 3124.0,2276.5 3032.0,1648.0 2946.0,1398.0 C 2860.0,1148.0 2513.2,1104.8 2463.0,1037.0 C 2412.8,969.2 2716.3,1120.7 2645.0,991.0 C 2573.7,861.3 2119.7,415.0 2035.0,259.0 C 1950.3,103.0 2306.5,81.3 2137.0,55.0 Z"/>
  </g>
  <g id="layer1" fill="#A38165" fill-rule="evenodd" stroke="none">
    <path d="M 2980.0,2533.0 C 3056.5,2428.5 2788.2,2203.5 2658.0,2263.0 C 2527.8,2322.5 2145.3,2845.0 2199.0,2890.0 C 2252.7,2935.0 2903.5,2637.5 2980.0,2533.0 Z M 2049.0,1566.0 C 1999.2,1538.7 1828.3,1978.5 1683.0,1997.0 C 1537.7,2015.5 1317.2,1703.2 1177.0,1677.0 C 1036.8,1650.8 919.5,1762.2 842.0,1840.0 C 764.5,1917.8 674.3,2044.0 712.0,2144.0 C 749.7,2244.0 1055.8,2302.7 1068.0,2440.0 C 1080.2,2577.3 609.3,2888.5 785.0,2968.0 C 960.7,3047.5 1869.7,3040.3 2122.0,2917.0 C 2374.3,2793.7 2322.3,2354.0 2299.0,2228.0 C 2275.7,2102.0 2023.7,2271.3 1982.0,2161.0 C 1940.3,2050.7 2098.8,1593.3 2049.0,1566.0 Z M 532.0,725.0 C 511.2,749.7 783.2,301.2 893.0,249.0 C 1002.8,196.8 1185.0,280.8 1191.0,412.0 C 1197.0,543.2 940.5,882.5 929.0,1036.0 C 917.5,1189.5 1059.3,1293.8 1122.0,1333.0 C 1184.7,1372.2 1293.8,1401.7 1305.0,1271.0 C 1316.2,1140.3 1131.2,676.2 1189.0,549.0 C 1246.8,421.8 1550.3,367.8 1652.0,508.0 C 1753.7,648.2 1745.7,1309.0 1799.0,1390.0 C 1852.3,1471.0 1931.0,1033.2 1972.0,994.0 C 2013.0,954.8 2024.5,1169.0 2045.0,1155.0 C 2065.5,1141.0 2064.2,933.7 2095.0,910.0 C 2125.8,886.3 2213.8,1049.3 2230.0,1013.0 C 2246.2,976.7 2165.5,705.0 2192.0,692.0 C 2218.5,679.0 2374.8,790.7 2389.0,935.0 C 2403.2,1079.3 2260.5,1505.7 2277.0,1558.0 C 2293.5,1610.3 2375.5,1256.7 2488.0,1249.0 C 2600.5,1241.3 3013.7,1616.5 2952.0,1512.0 C 2890.3,1407.5 2221.5,753.8 2118.0,622.0 C 2014.5,490.2 2345.7,745.0 2331.0,721.0 C 2316.3,697.0 2057.8,544.2 2030.0,478.0 C 2002.2,411.8 2183.2,356.5 2164.0,324.0 C 2144.8,291.5 1940.2,336.2 1915.0,283.0 C 1889.8,229.8 2032.0,22.0 2013.0,5.0 C 1994.0,-12.0 1966.8,165.0 1801.0,181.0 C 1635.2,197.0 1229.5,10.3 1018.0,101.0 C 806.5,191.7 552.8,700.3 532.0,725.0 Z M 1495.0,294.0 C 1465.3,237.8 1786.2,289.5 1880.0,356.0 C 1973.8,422.5 2122.2,703.3 2058.0,693.0 C 1993.8,682.7 1524.7,350.2 1495.0,294.0 Z"/>
  </g>
  <g id="layer2" fill="#800080" fill-rule="evenodd" stroke="none">
    <path d=""/>
  </g>
</svg>