<?xml version="1.0" encoding="UTF-8" standalone="no"?>
<!-- Created with Inkscape (http://www.inkscape.org/) -->

<svg
   width="210mm"
   height="297mm"
   viewBox="0 0 210 297"
   version="1.1"
   id="svg1"
   xml:space="preserve"
   inkscape:version="1.4.3 (0d15f75, 2025-12-25)"
   sodipodi:docname="hair.svg"
   xmlns:inkscape="http://www.inkscape.org/namespaces/inkscape"
   xmlns:sodipodi="http://sodipodi.sourceforge.net/DTD/sodipodi-0.dtd"
   xmlns="http://www.w3.org/2000/svg"
   xmlns:svg="http://www.w3.org/2000/svg"><sodipodi:namedview
     id="namedview1"
     pagecolor="#ffffff"
     bordercolor="#111111"
     borderopacity="1"
     inkscape:showpageshadow="0"
     inkscape:pageopacity="0"
     inkscape:pagecheckerboard="1"
     inkscape:deskcolor="#d1d1d1"
     inkscape:document-units="mm"
     inkscape:zoom="0.52517785"
     inkscape:cx="350.3575"
     inkscape:cy="612.17357"
     inkscape:window-width="1493"
     inkscape:window-height="906"
     inkscape:window-x="0"
     inkscape:window-y="33"
     inkscape:window-maximized="0"
     inkscape:current-layer="layer1" /><defs
     id="defs1" /><g
     inkscape:label="Layer 1"
     inkscape:groupmode="layer"
     id="layer1"><path
       style="fill:none;stroke:#800080"
       d="m 60.904975,252.94711 c -4.201919,-0.83004 -6.978346,-3.72999 -7.381766,-7.71019 -0.128678,-1.26955 -0.08998,-1.50642 0.136745,-0.83695 0.969841,2.86373 2.305879,4.3783 4.899426,5.5541 3.310989,1.50106 7.206775,0.84777 10.018221,-1.67996 3.221413,-2.89632 4.760101,-7.37927 4.397086,-12.81085 -0.46845,-7.00914 -2.887582,-11.89155 -10.166695,-20.51893 -7.563111,-8.96398 -11.110559,-15.89503 -12.476164,-24.37609 -0.658681,-4.09073 -0.557669,-14.14206 0.208992,-20.79606 0.349973,-3.03748 0.555339,-5.60366 0.456368,-5.70263 -0.274011,-0.27401 -3.716383,5.90393 -6.404579,11.49414 -4.106701,8.54004 -5.804523,14.93689 -5.815421,21.91064 -0.0079,5.03204 0.778426,8.56666 2.880074,12.94684 2.182705,4.54911 4.827205,7.25449 9.145085,9.3556 2.734414,1.33059 2.923159,1.48315 1.609068,1.30063 -5.102282,-0.70869 -10.481255,-3.57403 -13.775489,-7.3381 -6.627105,-7.57228 -8.054223,-20.03836 -3.581078,-31.28121 2.474355,-6.21908 5.437754,-11.26664 10.673694,-18.18052 2.315926,-3.0581 7.172603,-10.12762 8.546844,-12.44103 0.255783,-0.43058 0.372521,2.03776 0.372521,7.87666 0,5.12223 0.193121,9.7629 0.485653,11.67019 2.131238,13.89558 7.851889,22.86997 19.816754,31.08795 5.738544,3.94147 9.829925,8.08254 11.660643,11.80225 3.26887,6.64179 3.242592,13.86192 -0.07412,20.3632 -0.8972,1.75866 -1.361182,2.1091 -0.7161,0.54086 0.231766,-0.56343 0.424247,-2.86841 0.427736,-5.12216 0.0104,-6.71824 -1.866534,-11.1509 -6.999928,-16.53138 -1.442039,-1.51145 -4.717322,-4.4396 -7.278405,-6.507 -2.561084,-2.0674 -5.886873,-5.00041 -7.390643,-6.5178 -1.838997,-1.85565 -2.547967,-2.39889 -2.165513,-1.65931 0.845124,1.63429 4.779758,6.8493 7.77053,10.29915 5.992283,6.91208 8.554288,11.23031 9.814331,16.54192 0.939242,3.9593 0.614334,10.4216 -0.722404,14.36835 -2.274274,6.71485 -7.32977,11.64916 -13.191847,12.87563 -2.213761,0.46316 -2.931169,0.46622 -5.179624,0.0221 z m 55.094035,-3.88509 c -0.88274,-0.27554 -2.37847,-1.10361 -3.32385,-1.84014 -8.36424,-6.51652 -8.94105,-20.36651 -1.35511,-32.53765 2.48311,-3.98399 5.29667,-7.60062 10.93635,-14.05792 7.65141,-8.76067 10.46875,-13.24 12.84649,-20.42479 1.4962,-4.52105 2.31481,-9.32752 2.58043,-15.15099 0.21352,-4.68129 0.11828,-4.55175 -1.43287,1.94885 -1.46354,6.13342 -3.8639,11.71496 -7.69337,17.88933 -2.40876,3.88372 -4.82643,7.06175 -11.13592,14.63818 -8.41066,10.09951 -11.91948,15.88982 -13.96631,23.04741 -1.47619,5.16212 -1.32344,11.84954 0.38359,16.79422 0.4354,1.26118 -1.67663,-1.9464 -2.41349,-3.66542 -2.206762,-5.14817 -2.467168,-13.11859 -0.63089,-19.31017 2.08038,-7.01465 5.22336,-12.46796 13.72445,-23.81304 6.32772,-8.44462 8.13577,-11.1839 10.51282,-15.92745 4.52103,-9.02201 6.50543,-18.86661 5.96172,-29.57606 -0.14303,-2.81719 -0.4062,-5.12216 -0.58482,-5.12216 -0.17863,0 -0.32784,0.88008 -0.3316,1.95573 -0.0172,4.93329 -1.79587,13.96499 -4.13611,21.00244 -2.92261,8.78871 -6.86984,15.86422 -15.45573,27.70471 -1.85712,2.56109 -4.10129,5.87288 -4.98704,7.35954 -0.88576,1.48666 -1.66878,2.64471 -1.74005,2.57344 -0.2376,-0.2376 2.1212,-5.60176 4.14396,-9.42378 1.09876,-2.07614 3.27029,-5.67916 4.82561,-8.00671 1.55532,-2.32756 2.82786,-4.43305 2.82786,-4.67887 0,-0.24582 -0.49188,-1.92329 -1.09306,-3.7277 -2.06767,-6.20601 -2.44667,-8.88794 -2.43772,-17.25031 0.005,-4.20017 0.14087,-8.12737 0.30305,-8.7271 l 0.29488,-1.09042 -1.23436,0.99323 c -4.9447,3.97877 -9.16888,5.92687 -15.185642,7.00326 -4.641264,0.83032 -5.575259,1.17157 -6.842433,2.50001 -1.268361,1.32969 -1.551467,2.17403 -2.473045,7.37565 -1.030458,5.81617 -1.997904,9.3191 -3.639832,13.17908 -1.16589,2.74088 -4.019463,7.82295 -4.39257,7.82295 -0.06978,0 0.03436,-0.54481 0.231402,-1.21069 0.926771,-3.13186 1.889911,-10.32103 2.083621,-15.55277 0.117585,-3.17574 0.129058,-5.69026 0.0255,-5.58781 -0.103562,0.10244 -0.478396,1.94462 -0.832963,4.09372 -0.872416,5.28789 -2.156733,9.57002 -4.107224,13.69416 -0.896325,1.89521 -1.688842,3.44583 -1.761151,3.44583 -0.07231,0 0.09552,-2.55643 0.372946,-5.68095 0.311159,-3.5044 0.435386,-8.24999 0.324242,-12.38633 -0.205988,-7.6661 -0.959105,-11.63108 -3.628839,-19.10499 -0.857337,-2.40012 -2.247751,-6.41371 -3.089807,-8.9191 -0.842057,-2.50539 -1.636599,-4.55891 -1.765649,-4.56339 -0.294228,-0.0102 0.457536,4.08133 2.121317,11.54543 2.084929,9.35346 2.772238,14.9435 2.724578,22.15961 -0.02301,3.48307 -0.147959,7.41763 -0.277675,8.74345 l -0.235849,2.41059 -1.9021,-2.59685 c -5.198515,-7.0973 -8.712812,-15.55863 -11.135463,-26.81073 -1.035954,-4.81153 -1.856956,-12.70738 -1.512317,-14.54446 0.479815,-2.55764 -0.37487,-1.20162 -1.448903,2.29878 -2.28459,7.44576 -6.767125,15.27573 -13.088433,22.86253 -5.489092,6.58799 -8.109276,11.1596 -9.396815,16.39528 -0.64573,2.62581 -0.700779,2.71576 -0.937741,1.53231 -0.790362,-3.94729 0.08325,-9.39258 2.188906,-13.64359 1.607643,-3.2456 3.401681,-5.64561 8.407466,-11.24727 6.716049,-7.51551 9.293125,-11.67858 12.062292,-19.48573 2.834097,-7.99021 5.146935,-12.02381 8.988515,-15.67599 2.371315,-2.2544 5.003408,-4.06764 5.904584,-4.06764 0.311401,0 0.566184,0.0608 0.566184,0.13503 0,0.48299 1.962098,9.6298 2.610283,12.16849 1.557165,6.09881 4.152725,10.45806 8.990348,15.09929 3.387064,3.24956 6.87321,5.74337 10.21464,7.30701 3.291181,1.54013 7.514184,1.86483 11.217212,0.86246 4.56659,-1.23611 12.24267,-7.14863 16.397,-12.62982 3.25035,-4.28849 4.41459,-7.69211 7.33796,-21.45237 l 0.91014,-4.284 -1.24506,-1.90909 c -3.53027,-5.4131 -6.57692,-13.129976 -7.99712,-20.25592 -0.42876,-2.15131 -0.825,-4.065939 -0.88054,-4.254731 -0.0555,-0.188791 -1.21409,1.90664 -2.57455,4.656516 -1.58096,3.195565 -3.33835,6.076872 -4.87005,7.984595 -2.48066,3.08966 -6.68782,6.72853 -9.34236,8.08043 -1.365455,0.69539 -1.220535,0.4921 1.3853,-1.94326 2.66423,-2.48993 6.21648,-6.647952 6.21648,-7.276583 0,-0.143027 -1.04771,0.652006 -2.32825,1.766743 -6.588963,5.7358 -11.862467,7.92603 -26.211816,10.88645 -8.930289,1.84242 -11.526415,2.6158 -14.649598,4.3641 -6.704242,3.7529 -10.619817,9.02202 -13.80393,18.57568 -1.978538,5.93644 -4.797689,11.91247 -5.243675,11.11554 -0.597381,-1.06746 -1.189778,-10.90781 -0.971916,-16.14458 0.264345,-6.35406 0.939415,-10.3227 2.629702,-15.45963 0.70788,-2.15131 1.566284,-5.67163 1.907566,-7.82294 2.461967,-15.519331 8.728373,-28.1969 18.510908,-37.449433 7.9575,-7.526375 16.49824,-11.458834 27.109747,-12.482286 10.398242,-1.002882 18.578492,1.721041 23.276132,7.750664 1.22104,1.567256 1.58683,1.788916 3.645,2.208745 3.16743,0.646098 5.8806,2.111321 8.70947,4.703461 7.10176,6.507477 10.54533,15.322947 12.97664,33.219979 1.64317,12.09542 2.43352,15.84733 4.35527,20.67493 4.63361,11.64007 14.55405,17.73767 19.43015,11.94275 1.18605,-1.40954 1.30349,-0.946 0.27239,1.07512 -2.36432,4.63446 -9.25688,5.76451 -15.97752,2.61954 -1.31872,-0.6171 -2.48102,-1.03865 -2.5829,-0.93677 -0.50331,0.50331 2.45442,7.89978 8.43604,21.09622 5.05537,11.15297 6.27003,18.70114 4.28058,26.60045 -0.60625,2.40719 -2.57272,6.38941 -4.04636,8.19412 l -0.91145,1.11623 0.91031,-2.69067 c 2.58154,-7.63036 1.88239,-15.95782 -2.11955,-25.24575 -0.61796,-1.4342 -3.214,-6.32878 -5.76898,-10.87683 -4.84956,-8.63258 -7.88076,-14.98542 -9.6666,-20.25939 -1.25168,-3.69649 -1.53236,-3.12195 -0.69134,1.4151 1.2345,6.65971 4.2746,14.23202 9.01593,22.45696 5.67042,9.83666 7.15232,13.77107 7.46227,19.81222 0.44407,8.65518 -2.12533,14.79152 -11.56636,27.62326 -4.15083,5.6416 -6.07255,9.15456 -6.80237,12.43492 -1.27635,5.73699 0.54626,10.85717 4.55571,12.79811 2.08607,1.00985 4.10101,0.81545 5.91878,-0.57103 1.68595,-1.28594 1.6699,-0.61173 -0.0208,0.87271 -1.5665,1.3754 -2.6681,1.72208 -5.39472,1.69771 -2.62594,-0.0235 -4.51727,-0.93217 -6.92748,-3.32838 -2.52193,-2.50725 -3.58249,-5.24295 -3.61109,-9.31474 -0.0387,-5.50953 1.55345,-9.13533 7.9629,-18.1338 4.42576,-6.2135 7.69136,-12.3177 8.93247,-16.69693 0.93299,-3.29206 1.52869,-14.52833 0.77022,-14.52833 -0.25449,0 -0.42211,0.70145 -0.42283,1.76948 -0.005,7.53404 -3.92875,18.05155 -10.04088,26.9148 -8.21813,11.91718 -9.95467,14.60846 -11.43002,17.71423 -2.34529,4.93707 -2.92655,7.41137 -2.92702,12.45985 -3.7e-4,3.90024 0.0918,4.48095 1.02908,6.48271 0.56621,1.2093 0.97131,2.25689 0.90022,2.32798 -0.39171,0.39171 -3.33921,-4.40497 -3.97834,-6.47423 -0.94071,-3.04566 -1.0068,-8.73908 -0.14299,-12.31798 0.81027,-3.3571 3.63396,-9.24361 6.29103,-13.1148 8.48267,-12.35875 10.10781,-15.22842 12.03207,-21.24619 1.30696,-4.08727 2.3077,-10.22785 2.3077,-14.16009 0,-1.49328 -0.0881,-2.62692 -0.19587,-2.51919 -0.10773,0.10773 -0.43774,1.69129 -0.73335,3.51902 -1.07149,6.62484 -3.25763,12.80956 -6.56949,18.5855 -2.38768,4.16414 -4.74088,7.33757 -9.7981,13.2133 -9.95239,11.56319 -13.99984,18.61343 -15.12228,26.34148 -1.03277,7.11069 1.87627,13.51831 6.80402,14.98691 0.8731,0.26021 1.92272,0.6116 2.33249,0.78086 1.29104,0.53328 -2.43255,0.36299 -4.21263,-0.19266 z M 50.98676,120.78747 c 1.477399,-2.5881 4.294193,-5.71139 7.34862,-8.14824 4.286665,-3.41995 10.266658,-6.20544 20.234588,-9.42533 9.387442,-3.03237 15.274971,-5.740408 20.375861,-9.372128 3.398641,-2.419756 9.903921,-8.553207 9.903921,-9.337834 0,-0.240166 -0.54482,0.0787 -1.2107,0.708597 -3.50091,3.311706 -9.847962,6.975584 -15.5542,8.978765 -1.74233,0.611647 -6.121565,1.881685 -9.731634,2.822306 -9.697748,2.526797 -13.820299,4.139544 -18.578538,7.267954 -2.987166,1.96397 -7.857248,6.76802 -9.783645,9.65098 -1.481926,2.21779 -4.372162,7.56075 -4.372162,8.08249 0,0.6027 0.662467,0.008 1.367889,-1.22756 z m 87.82087,-8.54182 c -5.46484,-8.2994 -14.10537,-24.72534 -15.19193,-28.880357 -0.11444,-0.437622 -0.30026,-0.703496 -0.41292,-0.59083 -0.11267,0.112666 0.0616,1.530239 0.38735,3.150163 2.09682,10.428553 6.04961,18.019374 12.93028,24.830934 2.73379,2.70634 3.35422,3.11054 2.28722,1.49009 z m -5.2053,-18.58456 c -0.95196,-2.635132 -2.64299,-6.718947 -3.75785,-9.075143 -2.36534,-4.999045 -5.77019,-11.250983 -6.00143,-11.01974 -0.22316,0.22316 5.41988,13.404926 8.60406,20.098482 1.44942,3.046884 2.69173,5.370536 2.76069,5.163671 0.069,-0.206866 -0.65351,-2.532137 -1.60547,-5.16727 z m -61.966522,0.65016 c 2.130308,-1.002571 6.990819,-2.928231 10.801135,-4.279246 3.810315,-1.351015 8.252631,-3.059145 9.871812,-3.795845 2.819104,-1.282643 9.974575,-5.733151 9.684335,-6.023391 -0.0767,-0.07667 -2.043698,0.777463 -4.371184,1.898068 -4.088228,1.968344 -12.13241,4.942999 -12.465716,4.609693 -0.08962,-0.08962 0.507582,-0.606683 1.327118,-1.149026 2.121644,-1.404038 10.454373,-8.156682 11.563323,-9.37064 l 0.931303,-1.01949 -1.676346,0.841699 c -2.73502,1.373264 -10.628066,6.201118 -16.018413,9.79781 -6.633431,4.426136 -14.418241,10.259647 -13.745101,10.299826 0.123445,0.0074 1.967425,-0.806888 4.097734,-1.809458 z M 60.917915,90.820209 c 3.731413,-6.672389 7.746372,-11.992423 13.394272,-17.74812 3.228173,-3.289786 3.524488,-3.684841 1.955896,-2.607649 -2.867152,1.968948 -7.879781,6.92055 -10.335869,10.210034 -1.881108,2.519402 -6.627791,11.245413 -6.627791,12.184124 0,0.653862 0.367631,0.18942 1.613492,-2.038389 z m 3.026626,133.739061 c -0.121107,-0.3156 -2.513846,-2.57166 -5.317196,-5.01345 -7.155405,-6.23256 -9.982638,-10.10858 -12.025778,-16.48684 -1.35832,-4.2404 -1.835429,-8.99739 -1.411567,-14.07396 0.276087,-3.30668 1.313666,-8.66112 1.678344,-8.66112 0.08216,0 0.04713,0.88008 -0.07785,1.95574 -0.315586,2.71618 0.447057,10.95081 1.331657,14.37855 1.831412,7.09655 4.489073,12.01073 10.83402,20.03281 3.544269,4.48111 5.781694,7.86895 5.429484,8.22116 -0.121508,0.12151 -0.320012,-0.0373 -0.441119,-0.35289 z m 20.47758,-21.10235 c -1.244437,-1.17139 -4.39821,-3.46092 -7.008383,-5.08785 -5.866735,-3.65676 -8.599731,-5.84258 -11.046164,-8.83462 -2.495865,-3.05248 -5.317066,-8.88597 -6.477445,-13.3936 -0.952643,-3.70067 -1.945604,-11.37343 -1.587877,-12.26977 0.10907,-0.27329 0.211544,-0.0408 0.227719,0.51659 0.04272,1.47228 2.727572,9.43849 4.092048,12.1415 3.670173,7.27057 7.132552,11.24049 16.560301,18.98784 1.566904,1.28762 3.532159,3.20549 4.367235,4.26194 1.436192,1.81692 3.509108,5.4442 3.253354,5.69286 -0.065,0.0632 -1.136351,-0.84351 -2.380788,-2.01489 z"
       id="path20" /></g></svg>
