<svg xmlns="http://www.w3.org/2000/svg" width="440" height="360" viewBox="0 0 440 360">
  <!-- pathological test: snare drum w/ woven mesh head -->
  <ellipse cx="220" cy="110" rx="170" ry="46" fill="none" stroke="#30d0ff" stroke-width="1.5"/>
  <ellipse cx="220" cy="250" rx="170" ry="46" fill="none" stroke="#30d0ff" stroke-width="1.5"/>
  <line x1="50" y1="110" x2="50" y2="250" stroke="#e0e0e0" stroke-width="1.5"/>
  <line x1="390" y1="110" x2="390" y2="250" stroke="#e0e0e0" stroke-width="1.5"/>
  <line x1="92.5" y1="140.4" x2="92.5" y2="280.4" stroke="#e0e0e0" stroke-width="1.2"/>
  <line x1="135.0" y1="149.8" x2="135.0" y2="289.8" stroke="#e0e0e0" stroke-width="1.2"/>
  <line x1="177.5" y1="154.5" x2="177.5" y2="294.5" stroke="#e0e0e0" stroke-width="1.2"/>
  <line x1="220.0" y1="156.0" x2="220.0" y2="296.0" stroke="#e0e0e0" stroke-width="1.2"/>
  <line x1="262.5" y1="154.5" x2="262.5" y2="294.5" stroke="#e0e0e0" stroke-width="1.2"/>
  <line x1="305.0" y1="149.8" x2="305.0" y2="289.8" stroke="#e0e0e0" stroke-width="1.2"/>
  <line x1="347.5" y1="140.4" x2="347.5" y2="280.4" stroke="#e0e0e0" stroke-width="1.2"/>
  <line x1="76.2" y1="85.5" x2="76.2" y2="134.5" stroke="#40ff70" stroke-width="0.8"/>
  <line x1="102.3" y1="76.8" x2="102.3" y2="143.2" stroke="#40ff70" stroke-width="0.8"/>
  <line x1="128.5" y1="71.2" x2="128.5" y2="148.8" stroke="#40ff70" stroke-width="0.8"/>
  <line x1="154.6" y1="67.5" x2="154.6" y2="152.5" stroke="#40ff70" stroke-width="0.8"/>
  <line x1="180.8" y1="65.2" x2="180.8" y2="154.8" stroke="#40ff70" stroke-width="0.8"/>
  <line x1="206.9" y1="64.1" x2="206.9" y2="155.9" stroke="#40ff70" stroke-width="0.8"/>
  <line x1="233.1" y1="64.1" x2="233.1" y2="155.9" stroke="#40ff70" stroke-width="0.8"/>
  <line x1="259.2" y1="65.2" x2="259.2" y2="154.8" stroke="#40ff70" stroke-width="0.8"/>
  <line x1="285.4" y1="67.5" x2="285.4" y2="152.5" stroke="#40ff70" stroke-width="0.8"/>
  <line x1="311.5" y1="71.2" x2="311.5" y2="148.8" stroke="#40ff70" stroke-width="0.8"/>
  <line x1="337.7" y1="76.8" x2="337.7" y2="143.2" stroke="#40ff70" stroke-width="0.8"/>
  <line x1="363.8" y1="85.5" x2="363.8" y2="134.5" stroke="#40ff70" stroke-width="0.8"/>
  <line x1="101.0" y1="77.1" x2="339.0" y2="77.1" stroke="#40ff70" stroke-width="0.8"/>
  <line x1="66.4" y1="90.3" x2="373.6" y2="90.3" stroke="#40ff70" stroke-width="0.8"/>
  <line x1="51.7" y1="103.4" x2="388.3" y2="103.4" stroke="#40ff70" stroke-width="0.8"/>
  <line x1="51.7" y1="116.6" x2="388.3" y2="116.6" stroke="#40ff70" stroke-width="0.8"/>
  <line x1="66.4" y1="129.7" x2="373.6" y2="129.7" stroke="#40ff70" stroke-width="0.8"/>
  <line x1="101.0" y1="142.9" x2="339.0" y2="142.9" stroke="#40ff70" stroke-width="0.8"/>
  <rect x="84.2" y="197.4" width="10" height="24" fill="none" stroke="#ff9020" stroke-width="1.2"/>
  <line x1="89.2" y1="139.4" x2="89.2" y2="279.4" stroke="#ff9020" stroke-width="0.7"/>
  <rect x="149.6" y="210.5" width="10" height="24" fill="none" stroke="#ff9020" stroke-width="1.2"/>
  <line x1="154.6" y1="152.5" x2="154.6" y2="292.5" stroke="#ff9020" stroke-width="0.7"/>
  <rect x="215.0" y="214.0" width="10" height="24" fill="none" stroke="#ff9020" stroke-width="1.2"/>
  <line x1="220.0" y1="156.0" x2="220.0" y2="296.0" stroke="#ff9020" stroke-width="0.7"/>
  <rect x="280.4" y="210.5" width="10" height="24" fill="none" stroke="#ff9020" stroke-width="1.2"/>
  <line x1="285.4" y1="152.5" x2="285.4" y2="292.5" stroke="#ff9020" stroke-width="0.7"/>
  <rect x="345.8" y="197.4" width="10" height="24" fill="none" stroke="#ff9020" stroke-width="1.2"/>
  <line x1="350.8" y1="139.4" x2="350.8" y2="279.4" stroke="#ff9020" stroke-width="0.7"/>
  <path d="M 95.0 243.4 Q 111.0 263.1 99.0 282.9" fill="none" stroke="#ffe040" stroke-width="0.8"/>
  <path d="M 129.0 242.0 Q 145.0 265.9 133.0 289.8" fill="none" stroke="#ffe040" stroke-width="0.8"/>
  <path d="M 163.0 241.2 Q 179.0 267.6 167.0 293.9" fill="none" stroke="#ffe040" stroke-width="0.8"/>
  <path d="M 197.0 240.8 Q 213.0 268.3 201.0 295.8" fill="none" stroke="#ffe040" stroke-width="0.8"/>
  <path d="M 231.0 240.8 Q 247.0 268.3 235.0 295.8" fill="none" stroke="#ffe040" stroke-width="0.8"/>
  <path d="M 265.0 241.2 Q 281.0 267.6 269.0 293.9" fill="none" stroke="#ffe040" stroke-width="0.8"/>
  <path d="M 299.0 242.0 Q 315.0 265.9 303.0 289.8" fill="none" stroke="#ffe040" stroke-width="0.8"/>
  <path d="M 333.0 243.4 Q 349.0 263.1 337.0 282.9" fill="none" stroke="#ffe040" stroke-width="0.8"/>
</svg>
