%
M48
M72
T01C0.0150
T02C0.0400
%
T01
X12475Y11725
X12875Y10375
X14375Y9875
X15875Y10375
X15875Y11875
X14375Y11875
X14375Y13875
X14525Y15425
X14925Y15425
X14225Y16025
X13875Y16425
X14175Y16775
X13425Y15725
X13075Y16075
X11575Y16125
X11575Y15725
X12875Y14375
X11375Y13875
X9325Y15725
X7475Y14975
X7175Y14675
X5375Y16875
X4375Y16875
X3375Y16875
X3375Y20875
X3375Y22375
X3575Y24375
X4001Y24375
X5925Y22975
X6375Y22975
X7475Y24185
X9015Y24185
X9025Y23625
X7825Y21725
X6375Y21325
X6375Y20575
X7475Y18725
X7875Y18525
X8375Y19375
X9025Y20325
X9325Y20075
X9625Y19475
X10625Y19475
X11125Y19475
X11125Y19875
X12375Y20875
X14375Y20875
X15375Y20875
X16875Y20875
X18425Y21125
X19725Y21125
X20375Y20975
X19725Y21875
X19725Y22375
X20075Y23625
X20375Y23925
X19725Y23875
X20675Y24925
X20675Y25375
X19075Y25875
X18725Y26475
X18325Y25875
X17825Y26475
X16975Y26525
X16225Y26525
X15475Y27075
X15775Y27425
X15725Y28025
X16125Y28025
X16975Y27725
X17825Y27725
X18675Y27725
X18675Y28875
X19075Y28875
X18325Y29925
X17975Y29725
X17325Y29275
X17325Y28906
X16275Y30175
X16625Y30425
X14875Y31375
X13875Y31375
X13875Y32375
X14875Y32375
X16375Y32875
X17375Y32875
X18375Y32875
X19375Y32875
X20375Y32875
X21375Y32875
X22375Y32875
X23375Y32875
X24375Y32875
X25775Y31525
X26075Y31825
X27375Y31875
X27375Y29375
X27375Y27875
X26875Y26875
X25875Y26875
X25875Y27875
X24875Y28375
X25775Y29075
X23875Y29375
X23275Y29875
X23025Y30175
X22825Y29375
X23275Y28925
X23875Y28375
X23875Y26875
X23125Y26575
X22625Y26650
X21510Y27040
X21525Y27425
X20675Y28875
X20675Y29375
X19075Y30925
X18675Y30925
X14725Y28175
X14475Y28475
X12825Y28425
X12325Y28425
X12825Y27875
X12825Y27375
X12025Y26475
X12025Y26025
X12175Y25175
X12625Y25175
X11675Y25125
X11375Y24775
X11675Y23975
X11325Y23875
X13025Y22825
X13425Y22825
X14175Y23675
X14175Y24075
X14325Y24975
X14175Y26175
X14925Y26575
X16625Y23025
X16625Y22575
X18640Y23290
X21425Y22625
X21425Y22225
X22225Y21375
X21875Y20975
X21875Y20375
X20325Y19359
X19625Y19621
X17375Y17075
X16925Y17075
X15775Y17775
X16075Y18125
X15375Y17375
X14175Y18175
X13875Y17875
X10675Y18475
X9625Y18075
X9325Y17875
X15875Y14375
X17375Y13875
X18875Y14375
X20375Y13875
X20375Y11875
X18875Y11875
X18875Y10375
X20375Y9875
X22375Y8875
X22775Y8875
X23375Y8875
X24375Y7875
X25375Y6875
X24375Y5875
X25375Y4875
X24375Y3875
X23375Y4875
X23375Y6875
X25375Y8875
X24375Y9875
X26375Y7875
X26375Y5875
X27375Y4875
X26375Y3875
X28375Y3875
X21375Y4030
X21175Y4425
X19375Y4875
X18375Y4875
X17375Y4875
X16375Y4875
X15375Y4875
X14375Y4875
X17375Y9875
X17375Y11875
X18125Y15875
X19725Y15875
X19725Y16375
X21725Y16125
X22425Y16125
X22375Y15375
X23875Y14375
X24875Y15375
X25875Y14375
X26875Y13375
X27875Y14375
X26875Y15375
X25875Y16375
X24875Y17375
X24375Y16779
X23875Y17075
X22875Y18375
X23875Y19375
X24375Y20975
X24775Y20975
X25875Y20375
X26875Y19375
X25875Y18375
X26875Y17375
X27875Y18375
X25875Y22375
X26375Y23375
X26375Y24375
X26375Y25375
X25375Y25375
X24125Y24775
X23875Y25875
X24875Y26875
X22125Y23975
X23375Y23625
X23875Y23075
X24375Y22779
X24775Y22775
X24875Y23375
X27875Y26875
X24875Y13375
X23225Y12275
X7875Y26875
X7875Y27875
X7875Y28875
X7175Y28875
X8875Y28875
X8875Y29875
X9875Y29875
X9875Y31375
X10875Y31375
X10875Y32375
X9875Y32375
X8875Y32375
X7875Y32375
X7875Y31375
X8875Y31375
X6875Y31375
X6875Y32375
X5875Y32375
X4875Y32375
X4875Y31375
X5875Y31375
X3875Y31375
X3875Y32375
X5125Y27375
X11875Y31375
X12875Y31375
X12875Y32375
X11875Y32375
T02
X5875Y4875
X5875Y5875
X5875Y6875
X5875Y7875
X5875Y10875
X5875Y11875
X5875Y12875
X14375Y8375
X14375Y7375
X14375Y6375
X28375Y5875
X28375Y6875
X28375Y8875
X28375Y9875
X28375Y11875
X28375Y12875
X28375Y14875
X28375Y15875
X28375Y20875
X28375Y21875
X28375Y22875
X28375Y23875
X28375Y24875
X28375Y25875
X27375Y25875
X27375Y24875
X27375Y23875
X27375Y22875
X27375Y21875
X27375Y20875
M30
