G75*
%MOIN*%
%OFA0B0*%
%FSLAX25Y25*%
%IPPOS*%
%LPD*%
%AMOC8*
5,1,8,0,0,1.08239X$1,22.5*
%
%ADD10R,0.10000X0.20000*%
%ADD11R,0.06312X0.12611*%
%ADD12R,0.04737X0.05131*%
%ADD13C,0.01990*%
%ADD14R,0.07690X0.02375*%
%ADD15R,0.06548X0.08674*%
%ADD16R,0.10643X0.06410*%
%ADD17C,0.00400*%
%ADD18R,0.01981X0.03398*%
%ADD19R,0.07099X0.02375*%
%ADD20R,0.02000X0.04700*%
%ADD21C,0.08200*%
%ADD22R,0.06706X0.04343*%
%ADD23R,0.04343X0.06706*%
%ADD24R,0.24422X0.24422*%
%ADD25R,0.03162X0.05524*%
%ADD26R,0.11430X0.07887*%
%ADD27R,0.03280X0.04068*%
%ADD28R,0.02965X0.05524*%
%ADD29R,0.05131X0.04737*%
%ADD30R,0.04068X0.03280*%
%ADD31R,0.04343X0.03950*%
%ADD32R,0.06312X0.07099*%
%ADD33R,0.07099X0.06312*%
%ADD34R,0.06800X0.03800*%
%ADD35C,0.04737*%
%ADD36C,0.05000*%
%ADD37C,0.06706*%
D10*
X0283750Y0168750D03*
D11*
X0093750Y0093199D03*
X0093750Y0074301D03*
X0093750Y0058199D03*
X0093750Y0039301D03*
D12*
X0123750Y0055404D03*
X0123750Y0062096D03*
X0123750Y0070404D03*
X0123750Y0077096D03*
X0118750Y0110404D03*
X0118750Y0117096D03*
X0108750Y0150404D03*
X0108750Y0157096D03*
X0088750Y0157096D03*
X0088750Y0150404D03*
X0068750Y0175404D03*
X0068750Y0182096D03*
X0085750Y0210404D03*
X0085750Y0217096D03*
X0128750Y0182096D03*
X0128750Y0175404D03*
X0193750Y0185404D03*
X0198750Y0185404D03*
X0198750Y0192096D03*
X0193750Y0192096D03*
X0193750Y0200404D03*
X0198750Y0200404D03*
X0198750Y0207096D03*
X0193750Y0207096D03*
X0218750Y0245404D03*
X0223750Y0245404D03*
X0223750Y0252096D03*
X0218750Y0252096D03*
X0238750Y0242096D03*
X0243750Y0242096D03*
X0243750Y0235404D03*
X0238750Y0235404D03*
X0203750Y0270404D03*
X0203750Y0277096D03*
X0218750Y0295404D03*
X0223750Y0295404D03*
X0223750Y0302096D03*
X0218750Y0302096D03*
X0248750Y0315404D03*
X0253750Y0315404D03*
X0253750Y0322096D03*
X0248750Y0322096D03*
X0253750Y0297096D03*
X0253750Y0290404D03*
X0243750Y0182096D03*
X0238750Y0182096D03*
X0238750Y0175404D03*
X0243750Y0175404D03*
X0188750Y0067096D03*
X0188750Y0060404D03*
X0048750Y0295404D03*
X0048750Y0302096D03*
X0038750Y0302096D03*
X0038750Y0295404D03*
D13*
X0041670Y0285123D02*
X0041670Y0282377D01*
X0038924Y0282377D01*
X0038924Y0285123D01*
X0041670Y0285123D01*
X0041670Y0284267D02*
X0038924Y0284267D01*
X0048576Y0285123D02*
X0048576Y0282377D01*
X0045830Y0282377D01*
X0045830Y0285123D01*
X0048576Y0285123D01*
X0048576Y0284267D02*
X0045830Y0284267D01*
X0048576Y0270123D02*
X0048576Y0267377D01*
X0045830Y0267377D01*
X0045830Y0270123D01*
X0048576Y0270123D01*
X0048576Y0269267D02*
X0045830Y0269267D01*
X0041670Y0270123D02*
X0041670Y0267377D01*
X0038924Y0267377D01*
X0038924Y0270123D01*
X0041670Y0270123D01*
X0041670Y0269267D02*
X0038924Y0269267D01*
X0038924Y0255123D02*
X0038924Y0252377D01*
X0038924Y0255123D02*
X0041670Y0255123D01*
X0041670Y0252377D01*
X0038924Y0252377D01*
X0038924Y0254267D02*
X0041670Y0254267D01*
X0045830Y0255123D02*
X0045830Y0252377D01*
X0045830Y0255123D02*
X0048576Y0255123D01*
X0048576Y0252377D01*
X0045830Y0252377D01*
X0045830Y0254267D02*
X0048576Y0254267D01*
X0072377Y0218576D02*
X0075123Y0218576D01*
X0075123Y0215830D01*
X0072377Y0215830D01*
X0072377Y0218576D01*
X0072377Y0217720D02*
X0075123Y0217720D01*
X0075123Y0211670D02*
X0072377Y0211670D01*
X0075123Y0211670D02*
X0075123Y0208924D01*
X0072377Y0208924D01*
X0072377Y0211670D01*
X0072377Y0210814D02*
X0075123Y0210814D01*
X0075123Y0180830D02*
X0072377Y0180830D01*
X0072377Y0183576D01*
X0075123Y0183576D01*
X0075123Y0180830D01*
X0075123Y0182720D02*
X0072377Y0182720D01*
X0072377Y0173924D02*
X0075123Y0173924D01*
X0072377Y0173924D02*
X0072377Y0176670D01*
X0075123Y0176670D01*
X0075123Y0173924D01*
X0075123Y0175814D02*
X0072377Y0175814D01*
X0122377Y0173924D02*
X0125123Y0173924D01*
X0122377Y0173924D02*
X0122377Y0176670D01*
X0125123Y0176670D01*
X0125123Y0173924D01*
X0125123Y0175814D02*
X0122377Y0175814D01*
X0122377Y0180830D02*
X0125123Y0180830D01*
X0122377Y0180830D02*
X0122377Y0183576D01*
X0125123Y0183576D01*
X0125123Y0180830D01*
X0125123Y0182720D02*
X0122377Y0182720D01*
X0122377Y0093576D02*
X0125123Y0093576D01*
X0125123Y0090830D01*
X0122377Y0090830D01*
X0122377Y0093576D01*
X0122377Y0092720D02*
X0125123Y0092720D01*
X0125123Y0086670D02*
X0122377Y0086670D01*
X0125123Y0086670D02*
X0125123Y0083924D01*
X0122377Y0083924D01*
X0122377Y0086670D01*
X0122377Y0085814D02*
X0125123Y0085814D01*
X0125123Y0048576D02*
X0122377Y0048576D01*
X0125123Y0048576D02*
X0125123Y0045830D01*
X0122377Y0045830D01*
X0122377Y0048576D01*
X0122377Y0047720D02*
X0125123Y0047720D01*
X0125123Y0041670D02*
X0122377Y0041670D01*
X0125123Y0041670D02*
X0125123Y0038924D01*
X0122377Y0038924D01*
X0122377Y0041670D01*
X0122377Y0040814D02*
X0125123Y0040814D01*
D14*
X0048750Y0188632D03*
X0048750Y0191191D03*
X0048750Y0193750D03*
X0048750Y0196309D03*
X0048750Y0198868D03*
D15*
X0049833Y0205167D03*
X0049833Y0182333D03*
D16*
X0038219Y0189961D03*
X0038219Y0197539D03*
D17*
X0036053Y0201624D02*
X0035742Y0201615D01*
X0035436Y0201675D01*
X0035151Y0201802D01*
X0034902Y0201989D01*
X0034700Y0202227D01*
X0034557Y0202503D01*
X0034478Y0202805D01*
X0034478Y0205561D01*
X0034518Y0205911D01*
X0034634Y0206244D01*
X0034822Y0206543D01*
X0035071Y0206792D01*
X0035370Y0206980D01*
X0035703Y0207096D01*
X0036053Y0207136D01*
X0043140Y0207136D01*
X0043140Y0208711D01*
X0046289Y0208711D01*
X0046289Y0201624D01*
X0036053Y0201624D01*
X0035371Y0201704D02*
X0046289Y0201704D01*
X0046289Y0202102D02*
X0034806Y0202102D01*
X0034558Y0202501D02*
X0046289Y0202501D01*
X0046289Y0202899D02*
X0034478Y0202899D01*
X0034478Y0203298D02*
X0046289Y0203298D01*
X0046289Y0203696D02*
X0034478Y0203696D01*
X0034478Y0204095D02*
X0046289Y0204095D01*
X0046289Y0204493D02*
X0034478Y0204493D01*
X0034478Y0204892D02*
X0046289Y0204892D01*
X0046289Y0205291D02*
X0034478Y0205291D01*
X0034493Y0205689D02*
X0046289Y0205689D01*
X0046289Y0206088D02*
X0034579Y0206088D01*
X0034786Y0206486D02*
X0046289Y0206486D01*
X0046289Y0206885D02*
X0035218Y0206885D01*
X0043140Y0207283D02*
X0046289Y0207283D01*
X0046289Y0207682D02*
X0043140Y0207682D01*
X0043140Y0208080D02*
X0046289Y0208080D01*
X0046289Y0208479D02*
X0043140Y0208479D01*
X0046289Y0185876D02*
X0035659Y0185876D01*
X0035397Y0185846D01*
X0035147Y0185759D01*
X0034923Y0185618D01*
X0034736Y0185431D01*
X0034595Y0185207D01*
X0034508Y0184958D01*
X0034478Y0184695D01*
X0034478Y0181545D01*
X0034469Y0181234D01*
X0034529Y0180928D01*
X0034656Y0180643D01*
X0034843Y0180394D01*
X0035081Y0180192D01*
X0035358Y0180049D01*
X0035659Y0179970D01*
X0043140Y0179970D01*
X0043140Y0178789D01*
X0046289Y0178789D01*
X0046289Y0185876D01*
X0046289Y0185763D02*
X0035160Y0185763D01*
X0034694Y0185365D02*
X0046289Y0185365D01*
X0046289Y0184966D02*
X0034511Y0184966D01*
X0034478Y0184568D02*
X0046289Y0184568D01*
X0046289Y0184169D02*
X0034478Y0184169D01*
X0034478Y0183771D02*
X0046289Y0183771D01*
X0046289Y0183372D02*
X0034478Y0183372D01*
X0034478Y0182974D02*
X0046289Y0182974D01*
X0046289Y0182575D02*
X0034478Y0182575D01*
X0034478Y0182177D02*
X0046289Y0182177D01*
X0046289Y0181778D02*
X0034478Y0181778D01*
X0034473Y0181380D02*
X0046289Y0181380D01*
X0046289Y0180981D02*
X0034519Y0180981D01*
X0034702Y0180583D02*
X0046289Y0180583D01*
X0046289Y0180184D02*
X0035097Y0180184D01*
X0043140Y0179786D02*
X0046289Y0179786D01*
X0046289Y0179387D02*
X0043140Y0179387D01*
X0043140Y0178989D02*
X0046289Y0178989D01*
D18*
X0096191Y0157372D03*
X0098750Y0157372D03*
X0101309Y0157372D03*
X0101309Y0150128D03*
X0098750Y0150128D03*
X0096191Y0150128D03*
D19*
X0206742Y0154990D03*
X0206742Y0157549D03*
X0206742Y0160108D03*
X0206742Y0162667D03*
X0206742Y0165226D03*
X0206742Y0167785D03*
X0206742Y0170344D03*
X0206742Y0172904D03*
X0229970Y0172904D03*
X0229970Y0170344D03*
X0229970Y0167785D03*
X0229970Y0165226D03*
X0229970Y0162667D03*
X0229970Y0160108D03*
X0229970Y0157549D03*
X0229970Y0154990D03*
X0229970Y0214990D03*
X0229970Y0217549D03*
X0229970Y0220108D03*
X0229970Y0222667D03*
X0229970Y0225226D03*
X0229970Y0227785D03*
X0229970Y0230344D03*
X0229970Y0232904D03*
X0206742Y0232904D03*
X0206742Y0230344D03*
X0206742Y0227785D03*
X0206742Y0225226D03*
X0206742Y0222667D03*
X0206742Y0220108D03*
X0206742Y0217549D03*
X0206742Y0214990D03*
D20*
X0211073Y0262263D03*
X0213632Y0262263D03*
X0216191Y0262263D03*
X0218750Y0262263D03*
X0221309Y0262263D03*
X0223868Y0262263D03*
X0226427Y0262263D03*
X0226427Y0285237D03*
X0223868Y0285237D03*
X0221309Y0285237D03*
X0218750Y0285237D03*
X0216191Y0285237D03*
X0213632Y0285237D03*
X0211073Y0285237D03*
D21*
X0273750Y0258750D03*
X0273750Y0248750D03*
X0273750Y0238750D03*
X0273750Y0228750D03*
X0273750Y0218750D03*
X0273750Y0208750D03*
X0283750Y0208750D03*
X0283750Y0218750D03*
X0283750Y0228750D03*
X0283750Y0238750D03*
X0283750Y0248750D03*
X0283750Y0258750D03*
X0283750Y0158750D03*
X0283750Y0148750D03*
X0283750Y0128750D03*
X0283750Y0118750D03*
X0283750Y0098750D03*
X0283750Y0088750D03*
X0283750Y0068750D03*
X0283750Y0058750D03*
X0143750Y0063750D03*
X0143750Y0073750D03*
X0143750Y0083750D03*
X0058750Y0078750D03*
X0058750Y0068750D03*
X0058750Y0058750D03*
X0058750Y0048750D03*
X0058750Y0108750D03*
X0058750Y0118750D03*
X0058750Y0128750D03*
D22*
X0063317Y0234065D03*
X0063317Y0239065D03*
X0063317Y0244065D03*
X0063317Y0249065D03*
X0063317Y0254065D03*
X0063317Y0259065D03*
X0063317Y0264065D03*
X0063317Y0269065D03*
X0063317Y0274065D03*
X0063317Y0279065D03*
X0063317Y0284065D03*
X0063317Y0289065D03*
X0063317Y0294065D03*
X0063317Y0299065D03*
X0134183Y0299065D03*
X0134183Y0294065D03*
X0134183Y0289065D03*
X0134183Y0284065D03*
X0134183Y0279065D03*
X0134183Y0274065D03*
X0134183Y0269065D03*
X0134183Y0264065D03*
X0134183Y0259065D03*
X0134183Y0254065D03*
X0134183Y0249065D03*
X0134183Y0244065D03*
X0134183Y0239065D03*
X0134183Y0234065D03*
D23*
X0121250Y0228199D03*
X0116250Y0228199D03*
X0111250Y0228199D03*
X0106250Y0228199D03*
X0101250Y0228199D03*
X0096250Y0228199D03*
X0091250Y0228199D03*
X0086250Y0228199D03*
X0081250Y0228199D03*
X0076250Y0228199D03*
D24*
X0098750Y0268750D03*
D25*
X0096250Y0189774D03*
X0091250Y0189774D03*
X0086250Y0189774D03*
X0081250Y0189774D03*
X0101250Y0189774D03*
X0106250Y0189774D03*
X0111250Y0189774D03*
X0116250Y0189774D03*
X0116250Y0167726D03*
X0111250Y0167726D03*
X0106250Y0167726D03*
X0101250Y0167726D03*
X0096250Y0167726D03*
X0091250Y0167726D03*
X0086250Y0167726D03*
X0081250Y0167726D03*
D26*
X0113750Y0092411D03*
X0113750Y0075089D03*
X0113750Y0057411D03*
X0113750Y0040089D03*
D27*
X0093278Y0108750D03*
X0084222Y0108750D03*
D28*
X0047490Y0228631D03*
X0043750Y0228631D03*
X0040010Y0228631D03*
X0040010Y0238869D03*
X0047490Y0238869D03*
D29*
X0047096Y0248750D03*
X0040404Y0248750D03*
X0040404Y0258750D03*
X0047096Y0258750D03*
X0047096Y0273750D03*
X0047096Y0278750D03*
X0040404Y0278750D03*
X0040404Y0273750D03*
X0040404Y0218750D03*
X0047096Y0218750D03*
X0085404Y0118750D03*
X0092096Y0118750D03*
X0185404Y0158750D03*
X0185404Y0163750D03*
X0185404Y0168750D03*
X0192096Y0168750D03*
X0192096Y0163750D03*
X0192096Y0158750D03*
X0192096Y0218750D03*
X0192096Y0223750D03*
X0192096Y0228750D03*
X0185404Y0228750D03*
X0185404Y0223750D03*
X0185404Y0218750D03*
X0195404Y0253750D03*
X0195404Y0258750D03*
X0202096Y0258750D03*
X0202096Y0253750D03*
X0202096Y0288750D03*
X0202096Y0293750D03*
X0195404Y0293750D03*
X0195404Y0288750D03*
D30*
X0063750Y0218278D03*
X0058750Y0218278D03*
X0058750Y0209222D03*
X0063750Y0209222D03*
D31*
X0107687Y0117490D03*
X0107687Y0110010D03*
X0099419Y0113750D03*
D32*
X0213238Y0193750D03*
X0213238Y0203750D03*
X0224262Y0203750D03*
X0233238Y0203750D03*
X0233238Y0193750D03*
X0224262Y0193750D03*
X0244262Y0193750D03*
X0244262Y0203750D03*
D33*
X0193750Y0268238D03*
X0193750Y0279262D03*
X0088750Y0139262D03*
X0088750Y0128238D03*
X0178750Y0089262D03*
X0178750Y0078238D03*
X0178750Y0069262D03*
X0178750Y0058238D03*
D34*
X0262750Y0286250D03*
X0262750Y0301250D03*
X0262750Y0311250D03*
X0262750Y0326250D03*
X0284750Y0326250D03*
X0284750Y0311250D03*
X0284750Y0301250D03*
X0284750Y0286250D03*
D35*
X0261750Y0342000D03*
X0055750Y0342000D03*
D36*
X0052185Y0020500D02*
X0052187Y0020619D01*
X0052193Y0020738D01*
X0052203Y0020857D01*
X0052217Y0020975D01*
X0052235Y0021093D01*
X0052256Y0021210D01*
X0052282Y0021326D01*
X0052312Y0021442D01*
X0052345Y0021556D01*
X0052382Y0021669D01*
X0052423Y0021781D01*
X0052468Y0021892D01*
X0052516Y0022001D01*
X0052568Y0022108D01*
X0052624Y0022213D01*
X0052683Y0022317D01*
X0052745Y0022418D01*
X0052811Y0022518D01*
X0052880Y0022615D01*
X0052952Y0022709D01*
X0053028Y0022802D01*
X0053106Y0022891D01*
X0053187Y0022978D01*
X0053272Y0023063D01*
X0053359Y0023144D01*
X0053448Y0023222D01*
X0053541Y0023298D01*
X0053635Y0023370D01*
X0053732Y0023439D01*
X0053832Y0023505D01*
X0053933Y0023567D01*
X0054037Y0023626D01*
X0054142Y0023682D01*
X0054249Y0023734D01*
X0054358Y0023782D01*
X0054469Y0023827D01*
X0054581Y0023868D01*
X0054694Y0023905D01*
X0054808Y0023938D01*
X0054924Y0023968D01*
X0055040Y0023994D01*
X0055157Y0024015D01*
X0055275Y0024033D01*
X0055393Y0024047D01*
X0055512Y0024057D01*
X0055631Y0024063D01*
X0055750Y0024065D01*
X0055869Y0024063D01*
X0055988Y0024057D01*
X0056107Y0024047D01*
X0056225Y0024033D01*
X0056343Y0024015D01*
X0056460Y0023994D01*
X0056576Y0023968D01*
X0056692Y0023938D01*
X0056806Y0023905D01*
X0056919Y0023868D01*
X0057031Y0023827D01*
X0057142Y0023782D01*
X0057251Y0023734D01*
X0057358Y0023682D01*
X0057463Y0023626D01*
X0057567Y0023567D01*
X0057668Y0023505D01*
X0057768Y0023439D01*
X0057865Y0023370D01*
X0057959Y0023298D01*
X0058052Y0023222D01*
X0058141Y0023144D01*
X0058228Y0023063D01*
X0058313Y0022978D01*
X0058394Y0022891D01*
X0058472Y0022802D01*
X0058548Y0022709D01*
X0058620Y0022615D01*
X0058689Y0022518D01*
X0058755Y0022418D01*
X0058817Y0022317D01*
X0058876Y0022213D01*
X0058932Y0022108D01*
X0058984Y0022001D01*
X0059032Y0021892D01*
X0059077Y0021781D01*
X0059118Y0021669D01*
X0059155Y0021556D01*
X0059188Y0021442D01*
X0059218Y0021326D01*
X0059244Y0021210D01*
X0059265Y0021093D01*
X0059283Y0020975D01*
X0059297Y0020857D01*
X0059307Y0020738D01*
X0059313Y0020619D01*
X0059315Y0020500D01*
X0059313Y0020381D01*
X0059307Y0020262D01*
X0059297Y0020143D01*
X0059283Y0020025D01*
X0059265Y0019907D01*
X0059244Y0019790D01*
X0059218Y0019674D01*
X0059188Y0019558D01*
X0059155Y0019444D01*
X0059118Y0019331D01*
X0059077Y0019219D01*
X0059032Y0019108D01*
X0058984Y0018999D01*
X0058932Y0018892D01*
X0058876Y0018787D01*
X0058817Y0018683D01*
X0058755Y0018582D01*
X0058689Y0018482D01*
X0058620Y0018385D01*
X0058548Y0018291D01*
X0058472Y0018198D01*
X0058394Y0018109D01*
X0058313Y0018022D01*
X0058228Y0017937D01*
X0058141Y0017856D01*
X0058052Y0017778D01*
X0057959Y0017702D01*
X0057865Y0017630D01*
X0057768Y0017561D01*
X0057668Y0017495D01*
X0057567Y0017433D01*
X0057463Y0017374D01*
X0057358Y0017318D01*
X0057251Y0017266D01*
X0057142Y0017218D01*
X0057031Y0017173D01*
X0056919Y0017132D01*
X0056806Y0017095D01*
X0056692Y0017062D01*
X0056576Y0017032D01*
X0056460Y0017006D01*
X0056343Y0016985D01*
X0056225Y0016967D01*
X0056107Y0016953D01*
X0055988Y0016943D01*
X0055869Y0016937D01*
X0055750Y0016935D01*
X0055631Y0016937D01*
X0055512Y0016943D01*
X0055393Y0016953D01*
X0055275Y0016967D01*
X0055157Y0016985D01*
X0055040Y0017006D01*
X0054924Y0017032D01*
X0054808Y0017062D01*
X0054694Y0017095D01*
X0054581Y0017132D01*
X0054469Y0017173D01*
X0054358Y0017218D01*
X0054249Y0017266D01*
X0054142Y0017318D01*
X0054037Y0017374D01*
X0053933Y0017433D01*
X0053832Y0017495D01*
X0053732Y0017561D01*
X0053635Y0017630D01*
X0053541Y0017702D01*
X0053448Y0017778D01*
X0053359Y0017856D01*
X0053272Y0017937D01*
X0053187Y0018022D01*
X0053106Y0018109D01*
X0053028Y0018198D01*
X0052952Y0018291D01*
X0052880Y0018385D01*
X0052811Y0018482D01*
X0052745Y0018582D01*
X0052683Y0018683D01*
X0052624Y0018787D01*
X0052568Y0018892D01*
X0052516Y0018999D01*
X0052468Y0019108D01*
X0052423Y0019219D01*
X0052382Y0019331D01*
X0052345Y0019444D01*
X0052312Y0019558D01*
X0052282Y0019674D01*
X0052256Y0019790D01*
X0052235Y0019907D01*
X0052217Y0020025D01*
X0052203Y0020143D01*
X0052193Y0020262D01*
X0052187Y0020381D01*
X0052185Y0020500D01*
D37*
X0055750Y0020500D03*
M02*
