G75*
%MOIN*%
%OFA0B0*%
%FSLAX25Y25*%
%IPPOS*%
%LPD*%
%AMOC8*
5,1,8,0,0,1.08239X$1,22.5*
%
%ADD10C,0.00600*%
%ADD11R,0.00157X0.00315*%
%ADD12R,0.00157X0.01417*%
%ADD13R,0.00157X0.02520*%
%ADD14R,0.00157X0.01732*%
%ADD15R,0.00157X0.00945*%
%ADD16R,0.00157X0.02362*%
%ADD17R,0.00157X0.03150*%
%ADD18R,0.00157X0.02677*%
%ADD19R,0.00157X0.03307*%
%ADD20R,0.00157X0.02835*%
%ADD21R,0.00157X0.02992*%
%ADD22R,0.00157X0.01260*%
%ADD23R,0.00157X0.01102*%
%ADD24R,0.00157X0.00157*%
%ADD25R,0.00157X0.00630*%
%ADD26R,0.00157X0.00787*%
%ADD27R,0.00157X0.01575*%
%ADD28R,0.00157X0.02047*%
%ADD29R,0.00157X0.02205*%
%ADD30R,0.00157X0.01890*%
D10*
X0194350Y0185750D02*
X0194350Y0191750D01*
X0194352Y0191810D01*
X0194357Y0191871D01*
X0194366Y0191930D01*
X0194379Y0191989D01*
X0194395Y0192048D01*
X0194415Y0192105D01*
X0194438Y0192160D01*
X0194465Y0192215D01*
X0194494Y0192267D01*
X0194527Y0192318D01*
X0194563Y0192367D01*
X0194601Y0192413D01*
X0194643Y0192457D01*
X0194687Y0192499D01*
X0194733Y0192537D01*
X0194782Y0192573D01*
X0194833Y0192606D01*
X0194885Y0192635D01*
X0194940Y0192662D01*
X0194995Y0192685D01*
X0195052Y0192705D01*
X0195111Y0192721D01*
X0195170Y0192734D01*
X0195229Y0192743D01*
X0195290Y0192748D01*
X0195350Y0192750D01*
X0202150Y0192750D01*
X0202210Y0192748D01*
X0202271Y0192743D01*
X0202330Y0192734D01*
X0202389Y0192721D01*
X0202448Y0192705D01*
X0202505Y0192685D01*
X0202560Y0192662D01*
X0202615Y0192635D01*
X0202667Y0192606D01*
X0202718Y0192573D01*
X0202767Y0192537D01*
X0202813Y0192499D01*
X0202857Y0192457D01*
X0202899Y0192413D01*
X0202937Y0192367D01*
X0202973Y0192318D01*
X0203006Y0192267D01*
X0203035Y0192215D01*
X0203062Y0192160D01*
X0203085Y0192105D01*
X0203105Y0192048D01*
X0203121Y0191989D01*
X0203134Y0191930D01*
X0203143Y0191871D01*
X0203148Y0191810D01*
X0203150Y0191750D01*
X0203150Y0185750D01*
X0203148Y0185690D01*
X0203143Y0185629D01*
X0203134Y0185570D01*
X0203121Y0185511D01*
X0203105Y0185452D01*
X0203085Y0185395D01*
X0203062Y0185340D01*
X0203035Y0185285D01*
X0203006Y0185233D01*
X0202973Y0185182D01*
X0202937Y0185133D01*
X0202899Y0185087D01*
X0202857Y0185043D01*
X0202813Y0185001D01*
X0202767Y0184963D01*
X0202718Y0184927D01*
X0202667Y0184894D01*
X0202615Y0184865D01*
X0202560Y0184838D01*
X0202505Y0184815D01*
X0202448Y0184795D01*
X0202389Y0184779D01*
X0202330Y0184766D01*
X0202271Y0184757D01*
X0202210Y0184752D01*
X0202150Y0184750D01*
X0195350Y0184750D01*
X0195290Y0184752D01*
X0195229Y0184757D01*
X0195170Y0184766D01*
X0195111Y0184779D01*
X0195052Y0184795D01*
X0194995Y0184815D01*
X0194940Y0184838D01*
X0194885Y0184865D01*
X0194833Y0184894D01*
X0194782Y0184927D01*
X0194733Y0184963D01*
X0194687Y0185001D01*
X0194643Y0185043D01*
X0194601Y0185087D01*
X0194563Y0185133D01*
X0194527Y0185182D01*
X0194494Y0185233D01*
X0194465Y0185285D01*
X0194438Y0185340D01*
X0194415Y0185395D01*
X0194395Y0185452D01*
X0194379Y0185511D01*
X0194366Y0185570D01*
X0194357Y0185629D01*
X0194352Y0185690D01*
X0194350Y0185750D01*
X0195350Y0199750D02*
X0202150Y0199750D01*
X0202210Y0199752D01*
X0202271Y0199757D01*
X0202330Y0199766D01*
X0202389Y0199779D01*
X0202448Y0199795D01*
X0202505Y0199815D01*
X0202560Y0199838D01*
X0202615Y0199865D01*
X0202667Y0199894D01*
X0202718Y0199927D01*
X0202767Y0199963D01*
X0202813Y0200001D01*
X0202857Y0200043D01*
X0202899Y0200087D01*
X0202937Y0200133D01*
X0202973Y0200182D01*
X0203006Y0200233D01*
X0203035Y0200285D01*
X0203062Y0200340D01*
X0203085Y0200395D01*
X0203105Y0200452D01*
X0203121Y0200511D01*
X0203134Y0200570D01*
X0203143Y0200629D01*
X0203148Y0200690D01*
X0203150Y0200750D01*
X0203150Y0206750D01*
X0203148Y0206810D01*
X0203143Y0206871D01*
X0203134Y0206930D01*
X0203121Y0206989D01*
X0203105Y0207048D01*
X0203085Y0207105D01*
X0203062Y0207160D01*
X0203035Y0207215D01*
X0203006Y0207267D01*
X0202973Y0207318D01*
X0202937Y0207367D01*
X0202899Y0207413D01*
X0202857Y0207457D01*
X0202813Y0207499D01*
X0202767Y0207537D01*
X0202718Y0207573D01*
X0202667Y0207606D01*
X0202615Y0207635D01*
X0202560Y0207662D01*
X0202505Y0207685D01*
X0202448Y0207705D01*
X0202389Y0207721D01*
X0202330Y0207734D01*
X0202271Y0207743D01*
X0202210Y0207748D01*
X0202150Y0207750D01*
X0195350Y0207750D01*
X0195290Y0207748D01*
X0195229Y0207743D01*
X0195170Y0207734D01*
X0195111Y0207721D01*
X0195052Y0207705D01*
X0194995Y0207685D01*
X0194940Y0207662D01*
X0194885Y0207635D01*
X0194833Y0207606D01*
X0194782Y0207573D01*
X0194733Y0207537D01*
X0194687Y0207499D01*
X0194643Y0207457D01*
X0194601Y0207413D01*
X0194563Y0207367D01*
X0194527Y0207318D01*
X0194494Y0207267D01*
X0194465Y0207215D01*
X0194438Y0207160D01*
X0194415Y0207105D01*
X0194395Y0207048D01*
X0194379Y0206989D01*
X0194366Y0206930D01*
X0194357Y0206871D01*
X0194352Y0206810D01*
X0194350Y0206750D01*
X0194350Y0200750D01*
X0194352Y0200690D01*
X0194357Y0200629D01*
X0194366Y0200570D01*
X0194379Y0200511D01*
X0194395Y0200452D01*
X0194415Y0200395D01*
X0194438Y0200340D01*
X0194465Y0200285D01*
X0194494Y0200233D01*
X0194527Y0200182D01*
X0194563Y0200133D01*
X0194601Y0200087D01*
X0194643Y0200043D01*
X0194687Y0200001D01*
X0194733Y0199963D01*
X0194782Y0199927D01*
X0194833Y0199894D01*
X0194885Y0199865D01*
X0194940Y0199838D01*
X0194995Y0199815D01*
X0195052Y0199795D01*
X0195111Y0199779D01*
X0195170Y0199766D01*
X0195229Y0199757D01*
X0195290Y0199752D01*
X0195350Y0199750D01*
D11*
X0191797Y0191341D03*
X0190852Y0185986D03*
X0189750Y0184411D03*
X0190852Y0183152D03*
X0189750Y0181577D03*
X0187703Y0211498D03*
D12*
X0187703Y0207640D03*
X0189278Y0197561D03*
X0191167Y0194726D03*
X0188963Y0182285D03*
D13*
X0191325Y0182364D03*
X0191325Y0185199D03*
X0191482Y0185199D03*
X0191482Y0188033D03*
X0189278Y0188033D03*
X0189278Y0191656D03*
X0191325Y0191656D03*
X0187860Y0198742D03*
X0187703Y0203467D03*
X0190222Y0203939D03*
X0191010Y0210711D03*
D14*
X0187703Y0198821D03*
X0189907Y0197719D03*
X0190695Y0184805D03*
X0190065Y0182600D03*
X0190695Y0181970D03*
D15*
X0191010Y0181577D03*
X0189750Y0182994D03*
X0191010Y0184411D03*
X0189750Y0185829D03*
X0190380Y0189293D03*
X0188963Y0191341D03*
X0190222Y0192443D03*
X0190380Y0192443D03*
X0190537Y0192443D03*
X0191797Y0192443D03*
X0191955Y0192443D03*
X0192112Y0192443D03*
X0192270Y0192443D03*
X0192427Y0192443D03*
X0192585Y0192443D03*
X0192742Y0192443D03*
X0192900Y0192443D03*
X0189120Y0196065D03*
X0189120Y0199530D03*
X0188963Y0199530D03*
X0188805Y0199530D03*
X0189278Y0199530D03*
X0189435Y0199530D03*
X0189593Y0199530D03*
X0189750Y0199530D03*
X0189907Y0199530D03*
X0190065Y0199530D03*
X0190222Y0199530D03*
X0190380Y0199530D03*
X0190537Y0199530D03*
X0190695Y0199530D03*
X0189278Y0205986D03*
X0189120Y0205986D03*
X0189120Y0208191D03*
X0188963Y0208191D03*
X0188805Y0208191D03*
X0189278Y0208191D03*
X0189435Y0208191D03*
X0189593Y0208191D03*
X0190852Y0208191D03*
X0191010Y0208191D03*
X0191167Y0208191D03*
X0191325Y0208191D03*
X0191482Y0208191D03*
X0191640Y0208191D03*
X0190852Y0211498D03*
X0190695Y0211498D03*
X0190537Y0211498D03*
X0190380Y0211498D03*
X0190222Y0211498D03*
X0190065Y0211498D03*
X0189907Y0211498D03*
X0189750Y0211498D03*
X0189593Y0211498D03*
X0189435Y0211498D03*
X0189278Y0211498D03*
X0189120Y0211498D03*
X0188963Y0211498D03*
X0188805Y0211498D03*
X0188648Y0211498D03*
X0188490Y0211498D03*
X0188333Y0211498D03*
X0188175Y0211498D03*
X0188018Y0211498D03*
X0187860Y0211498D03*
D16*
X0187860Y0207482D03*
X0190537Y0207482D03*
X0189278Y0204018D03*
X0191797Y0198663D03*
X0190222Y0194884D03*
X0189120Y0191734D03*
X0191482Y0191734D03*
X0191640Y0187955D03*
X0189120Y0187955D03*
X0191167Y0185120D03*
X0191482Y0182443D03*
X0191167Y0182285D03*
D17*
X0191167Y0198427D03*
X0191010Y0198427D03*
X0188648Y0198427D03*
X0188490Y0198427D03*
X0187860Y0203467D03*
X0188648Y0203624D03*
X0188648Y0207089D03*
X0189750Y0207089D03*
D18*
X0190380Y0207325D03*
X0188018Y0207325D03*
X0189435Y0203860D03*
X0189593Y0203860D03*
X0189750Y0203860D03*
X0189907Y0203860D03*
X0190065Y0203860D03*
X0191640Y0198663D03*
X0188018Y0198663D03*
X0189435Y0191577D03*
X0189593Y0191577D03*
X0191167Y0191577D03*
X0191325Y0188112D03*
X0189435Y0188112D03*
D19*
X0190852Y0198348D03*
X0188490Y0203545D03*
X0188333Y0203545D03*
X0188175Y0203545D03*
X0188018Y0203545D03*
D20*
X0188175Y0207246D03*
X0190222Y0207246D03*
X0191167Y0210553D03*
X0191797Y0210553D03*
X0191482Y0198585D03*
X0188175Y0198585D03*
X0189750Y0191498D03*
X0190852Y0191498D03*
X0191010Y0191498D03*
X0191010Y0188191D03*
X0191167Y0188191D03*
X0189750Y0188191D03*
X0189593Y0188191D03*
D21*
X0189907Y0188270D03*
X0190852Y0188270D03*
X0191325Y0198506D03*
X0188333Y0198506D03*
X0188333Y0207167D03*
X0188490Y0207167D03*
X0189907Y0207167D03*
X0190065Y0207167D03*
X0191325Y0210474D03*
X0191482Y0210474D03*
X0191640Y0210474D03*
D22*
X0188805Y0206144D03*
X0189435Y0195907D03*
X0189750Y0195750D03*
X0190065Y0195593D03*
X0191325Y0194805D03*
X0191955Y0194963D03*
X0192270Y0195120D03*
X0189907Y0192285D03*
X0189907Y0190711D03*
X0190852Y0184569D03*
X0190852Y0181734D03*
D23*
X0189907Y0182915D03*
X0189907Y0185750D03*
X0190065Y0187325D03*
X0190222Y0187325D03*
X0190380Y0187325D03*
X0190537Y0187325D03*
X0190695Y0187325D03*
X0190695Y0189215D03*
X0190537Y0189215D03*
X0190222Y0189215D03*
X0190065Y0189215D03*
X0190222Y0190474D03*
X0190380Y0190474D03*
X0190537Y0190474D03*
X0190695Y0190632D03*
X0190065Y0190632D03*
X0190065Y0192364D03*
X0190695Y0192364D03*
X0189750Y0193939D03*
X0189593Y0193939D03*
X0189435Y0193781D03*
X0189278Y0193781D03*
X0189120Y0193781D03*
X0189907Y0194096D03*
X0190065Y0194096D03*
X0191482Y0194726D03*
X0191640Y0194884D03*
X0191797Y0194884D03*
X0192112Y0195041D03*
X0192427Y0195199D03*
X0192585Y0195199D03*
X0192742Y0195356D03*
X0192900Y0195356D03*
X0190695Y0197246D03*
X0190537Y0197246D03*
X0190380Y0197246D03*
X0190222Y0197246D03*
X0189120Y0197404D03*
X0188963Y0197404D03*
X0188805Y0197404D03*
X0189278Y0195986D03*
X0189593Y0195829D03*
X0189907Y0195671D03*
X0190380Y0204648D03*
X0190537Y0204648D03*
X0190695Y0204648D03*
X0190852Y0204648D03*
X0191010Y0204648D03*
X0191167Y0204648D03*
X0191325Y0204648D03*
X0191482Y0204648D03*
X0191640Y0204648D03*
X0189593Y0206065D03*
X0189435Y0206065D03*
X0188963Y0206065D03*
X0188963Y0204648D03*
X0189120Y0204648D03*
X0188805Y0204648D03*
D24*
X0188805Y0182285D03*
X0188805Y0185120D03*
X0191955Y0185278D03*
X0191955Y0182443D03*
D25*
X0188963Y0193860D03*
X0188963Y0195907D03*
X0191797Y0208191D03*
D26*
X0191797Y0204648D03*
X0188963Y0192522D03*
X0188963Y0188427D03*
X0188963Y0187325D03*
X0191010Y0185907D03*
X0191797Y0187325D03*
X0191797Y0188427D03*
X0191010Y0183073D03*
D27*
X0191797Y0182364D03*
X0191797Y0185199D03*
X0188963Y0185041D03*
X0191010Y0194805D03*
X0190065Y0197640D03*
X0189750Y0197797D03*
X0189593Y0197797D03*
X0189435Y0197797D03*
D28*
X0190695Y0207640D03*
X0190222Y0185278D03*
X0190380Y0185120D03*
X0190537Y0184963D03*
X0189120Y0185120D03*
X0189120Y0182285D03*
X0190222Y0182443D03*
X0190380Y0182285D03*
X0190537Y0182128D03*
D29*
X0189593Y0182364D03*
X0189435Y0182364D03*
X0189278Y0182364D03*
X0191640Y0182364D03*
X0191640Y0185199D03*
X0189593Y0185199D03*
X0189435Y0185199D03*
X0189278Y0185041D03*
X0191640Y0191813D03*
X0190537Y0194805D03*
X0190380Y0194805D03*
D30*
X0190695Y0194805D03*
X0190852Y0194805D03*
X0190065Y0185356D03*
M02*
